<svg xmlns="http://www.w3.org/2000/svg" version="1.1" xmlns:xlink="http://www.w3.org/1999/xlink" x="0" y="0" viewBox="0 0 682.667 682.667" style="enable-background:new 0 0 512 512" xml:space="preserve" class=""><g><defs><clipPath id="a" clipPathUnits="userSpaceOnUse"><path d="M0 512h512V0H0Z" fill="#f8a206" opacity="1" data-original="#000000" class=""/></clipPath></defs><g clip-path="url(#a)" transform="matrix(1.33333 0 0 -1.33333 0 682.667)"><path d="m0 0 103.994-103.995c7.777-7.776 7.777-20.507.001-28.284l-66.568-66.569c-7.778-7.776-20.507-7.777-28.285 0L-94.854-94.853c-7.777 7.779-7.777 20.506.001 28.285L-28.284 0C-20.506 7.778-7.777 7.777 0 0" style="fill-opacity:1;fill-rule:evenodd;stroke:none" transform="translate(100.686 506.168)" fill="#ffffff" data-original="#b2f0fb" class="" opacity="1"/><path d="m0 0 103.995-103.995c7.777-7.777 7.777-20.508.001-28.284l-66.569-66.569c-7.777-7.776-20.507-7.778-28.284 0L-94.853-94.853c-7.777 7.779-7.778 20.506 0 28.285L-28.284 0C-20.506 7.778-7.776 7.777 0 0" style="fill-opacity:1;fill-rule:evenodd;stroke:none" transform="translate(402.17 204.682)" fill="#ffffff" data-original="#b2f0fb" class="" opacity="1"/><path d="m0 0-17.678 17.678c-7.778-7.779-20.508-7.776-28.283 0l-28.284 28.284c-7.776 7.775-7.778 20.506 0 28.284l-17.679 17.678 35.357 49.498 98.995 98.995c7.778 7.778 20.506 7.778 28.284 0l77.781-77.782c7.778-7.779 7.778-20.508 0-28.284L49.498 35.355Z" style="stroke-width:20;stroke-linecap:round;stroke-linejoin:round;stroke-miterlimit:22.926;stroke-dasharray:none;stroke-opacity:1" transform="translate(231.25 139.328)" fill="none" stroke="#f8a206" stroke-width="20" stroke-linecap="round" stroke-linejoin="round" stroke-miterlimit="22.926" stroke-dasharray="none" stroke-opacity="" data-original="#020288" opacity="1"/><path d="m0 0 127.03-127.03" style="stroke-width:20;stroke-linecap:round;stroke-linejoin:round;stroke-miterlimit:22.926;stroke-dasharray:none;stroke-opacity:1" transform="translate(72.401 439.6)" fill="none" stroke="#f8a206" stroke-width="20" stroke-linecap="round" stroke-linejoin="round" stroke-miterlimit="22.926" stroke-dasharray="none" stroke-opacity="" data-original="#020288" opacity="1"/><path d="m0 0-127.03 127.029" style="stroke-width:20;stroke-linecap:round;stroke-linejoin:round;stroke-miterlimit:22.926;stroke-dasharray:none;stroke-opacity:1" transform="translate(439.599 72.402)" fill="none" stroke="#f8a206" stroke-width="20" stroke-linecap="round" stroke-linejoin="round" stroke-miterlimit="22.926" stroke-dasharray="none" stroke-opacity="" data-original="#020288" opacity="1"/><path d="m0 0-28.284-28.284" style="stroke-width:20;stroke-linecap:round;stroke-linejoin:round;stroke-miterlimit:22.926;stroke-dasharray:none;stroke-opacity:1" transform="translate(93.614 446.67)" fill="none" stroke="#f8a206" stroke-width="20" stroke-linecap="round" stroke-linejoin="round" stroke-miterlimit="22.926" stroke-dasharray="none" stroke-opacity="" data-original="#020288" opacity="1"/><path d="m0 0-28.284-28.284" style="stroke-width:20;stroke-linecap:round;stroke-linejoin:round;stroke-miterlimit:22.926;stroke-dasharray:none;stroke-opacity:1" transform="translate(121.898 418.387)" fill="none" stroke="#f8a206" stroke-width="20" stroke-linecap="round" stroke-linejoin="round" stroke-miterlimit="22.926" stroke-dasharray="none" stroke-opacity="" data-original="#020288" opacity="1"/><path d="m0 0-28.284-28.284" style="stroke-width:20;stroke-linecap:round;stroke-linejoin:round;stroke-miterlimit:22.926;stroke-dasharray:none;stroke-opacity:1" transform="translate(150.183 390.103)" fill="none" stroke="#f8a206" stroke-width="20" stroke-linecap="round" stroke-linejoin="round" stroke-miterlimit="22.926" stroke-dasharray="none" stroke-opacity="" data-original="#020288" opacity="1"/><path d="m0 0 28.284 28.284" style="stroke-width:20;stroke-linecap:round;stroke-linejoin:round;stroke-miterlimit:22.926;stroke-dasharray:none;stroke-opacity:1" transform="translate(418.385 65.331)" fill="none" stroke="#f8a206" stroke-width="20" stroke-linecap="round" stroke-linejoin="round" stroke-miterlimit="22.926" stroke-dasharray="none" stroke-opacity="" data-original="#020288" opacity="1"/><path d="m0 0 28.284 28.284" style="stroke-width:20;stroke-linecap:round;stroke-linejoin:round;stroke-miterlimit:22.926;stroke-dasharray:none;stroke-opacity:1" transform="translate(390.1 93.615)" fill="none" stroke="#f8a206" stroke-width="20" stroke-linecap="round" stroke-linejoin="round" stroke-miterlimit="22.926" stroke-dasharray="none" stroke-opacity="" data-original="#020288" opacity="1"/><path d="m0 0 28.284 28.284" style="stroke-width:20;stroke-linecap:round;stroke-linejoin:round;stroke-miterlimit:22.926;stroke-dasharray:none;stroke-opacity:1" transform="translate(361.816 121.9)" fill="none" stroke="#f8a206" stroke-width="20" stroke-linecap="round" stroke-linejoin="round" stroke-miterlimit="22.926" stroke-dasharray="none" stroke-opacity="" data-original="#020288" opacity="1"/><path d="m0 0 98.995-98.995" style="stroke-width:20;stroke-linecap:round;stroke-linejoin:round;stroke-miterlimit:22.926;stroke-dasharray:none;stroke-opacity:1" transform="translate(178.218 277.214)" fill="none" stroke="#f8a206" stroke-width="20" stroke-linecap="round" stroke-linejoin="round" stroke-miterlimit="22.926" stroke-dasharray="none" stroke-opacity="" data-original="#020288" opacity="1"/><path d="M0 0a79.998 79.998 0 0 1 80-80" style="stroke-width:20;stroke-linecap:round;stroke-linejoin:round;stroke-miterlimit:22.926;stroke-dasharray:none;stroke-opacity:1" transform="translate(84.078 164.074)" fill="none" stroke="#f8a206" stroke-width="20" stroke-linecap="round" stroke-linejoin="round" stroke-miterlimit="22.926" stroke-dasharray="none" stroke-opacity="" data-original="#020288" opacity="1"/><path d="M0 0a40.002 40.002 0 0 1 40-40" style="stroke-width:20;stroke-linecap:round;stroke-linejoin:round;stroke-miterlimit:22.926;stroke-dasharray:none;stroke-opacity:1" transform="translate(124.078 164.074)" fill="none" stroke="#f8a206" stroke-width="20" stroke-linecap="round" stroke-linejoin="round" stroke-miterlimit="22.926" stroke-dasharray="none" stroke-opacity="" data-original="#020288" opacity="1"/><path d="m0 0-.005.006" style="stroke-width:20;stroke-linecap:round;stroke-linejoin:round;stroke-miterlimit:22.926;stroke-dasharray:none;stroke-opacity:1" transform="translate(164.081 164.071)" fill="none" stroke="#f8a206" stroke-width="20" stroke-linecap="round" stroke-linejoin="round" stroke-miterlimit="22.926" stroke-dasharray="none" stroke-opacity="" data-original="#020288" opacity="1"/><path d="M0 0c9.763-9.763 9.763-25.593 0-35.355-9.764-9.763-25.593-9.763-35.355 0-9.763 9.762-9.763 25.592 0 35.355C-25.593 9.763-9.764 9.763 0 0Z" style="stroke-width:20;stroke-linecap:round;stroke-linejoin:round;stroke-miterlimit:22.926;stroke-dasharray:none;stroke-opacity:1" transform="translate(301.962 301.963)" fill="none" stroke="#f8a206" stroke-width="20" stroke-linecap="round" stroke-linejoin="round" stroke-miterlimit="22.926" stroke-dasharray="none" stroke-opacity="" data-original="#020288" opacity="1"/><path d="m0 0-31.82-31.82" style="stroke-width:20;stroke-linecap:round;stroke-linejoin:round;stroke-miterlimit:22.926;stroke-dasharray:none;stroke-opacity:1" transform="translate(263.071 263.072)" fill="none" stroke="#f8a206" stroke-width="20" stroke-linecap="round" stroke-linejoin="round" stroke-miterlimit="22.926" stroke-dasharray="none" stroke-opacity="" data-original="#020288" opacity="1"/><path d="m0 0-31.82 31.82-42.427-42.426 31.82-31.82c11.667-11.668 30.759-11.668 42.427 0C11.667-30.759 11.667-11.667 0 0Z" style="stroke-width:20;stroke-linecap:round;stroke-linejoin:round;stroke-miterlimit:22.926;stroke-dasharray:none;stroke-opacity:1" transform="translate(397.422 439.849)" fill="none" stroke="#f8a206" stroke-width="20" stroke-linecap="round" stroke-linejoin="round" stroke-miterlimit="22.926" stroke-dasharray="none" stroke-opacity="" data-original="#020288" opacity="1"/><path d="m0 0 31.82-31.82-42.426-42.427-31.821 31.82C-54.094-30.76-54.094-11.668-42.426 0-30.759 11.667-11.667 11.667 0 0Z" style="stroke-width:20;stroke-linecap:round;stroke-linejoin:round;stroke-miterlimit:22.926;stroke-dasharray:none;stroke-opacity:1" transform="translate(439.848 397.423)" fill="none" stroke="#f8a206" stroke-width="20" stroke-linecap="round" stroke-linejoin="round" stroke-miterlimit="22.926" stroke-dasharray="none" stroke-opacity="" data-original="#020288" opacity="1"/><path d="m0 0-42.426-42.426" style="stroke-width:20;stroke-linecap:round;stroke-linejoin:round;stroke-miterlimit:22.926;stroke-dasharray:none;stroke-opacity:1" transform="translate(386.815 386.815)" fill="none" stroke="#f8a206" stroke-width="20" stroke-linecap="round" stroke-linejoin="round" stroke-miterlimit="22.926" stroke-dasharray="none" stroke-opacity="" data-original="#020288" opacity="1"/></g></g></svg>